<svg width="65" height="64" viewBox="0 0 65 64" fill="none" xmlns="http://www.w3.org/2000/svg">
<rect x="0.5" width="64" height="64" rx="12" fill="#FCF1E7"/>
<path d="M26.8144 49.5428V43.4093C26.8144 41.8493 28.0862 40.5817 29.662 40.5712H35.4342C37.0175 40.5712 38.301 41.8419 38.301 43.4093V43.4093V49.5619C38.3006 50.8864 39.3685 51.969 40.7061 52H44.5542C48.3902 52 51.5 48.9214 51.5 45.1237V45.1237V27.6757C51.4795 26.1817 50.771 24.7787 49.576 23.8661L36.4154 13.3706C34.1099 11.5431 30.8324 11.5431 28.5268 13.3706L15.4241 23.8851C14.2245 24.794 13.5148 26.1993 13.5 27.6947V45.1237C13.5 48.9214 16.6098 52 20.4458 52H24.2939C25.6647 52 26.7759 50.8999 26.7759 49.5428V49.5428" stroke="#FF8F2C" stroke-width="3" stroke-linecap="round" stroke-linejoin="round"/>
</svg>
