<svg width="137" height="42" viewBox="0 0 137 42" fill="none" xmlns="http://www.w3.org/2000/svg">
<rect x="0.594159" y="1.00969" width="135.811" height="39.527" rx="4.56081" fill="black"/>
<rect x="0.594159" y="1.00969" width="135.811" height="39.527" rx="4.56081" stroke="#A6A6A6" stroke-width="1.01351"/>
<path d="M69.1442 22.5478C66.7604 22.5478 64.8175 24.361 64.8175 26.8583C64.8175 29.3404 66.7604 31.1688 69.1442 31.1688C71.529 31.1688 73.4719 29.3404 73.4719 26.8583C73.4709 24.361 71.528 22.5478 69.1442 22.5478ZM69.1442 29.4722C67.8378 29.4722 66.7118 28.3948 66.7118 26.8593C66.7118 25.3076 67.8388 24.2465 69.1442 24.2465C70.4506 24.2465 71.5767 25.3076 71.5767 26.8593C71.5767 28.3938 70.4506 29.4722 69.1442 29.4722ZM59.7043 22.5478C57.3206 22.5478 55.3777 24.361 55.3777 26.8583C55.3777 29.3404 57.3206 31.1688 59.7043 31.1688C62.0891 31.1688 64.0321 29.3404 64.0321 26.8583C64.0321 24.361 62.0891 22.5478 59.7043 22.5478ZM59.7043 29.4722C58.3979 29.4722 57.2719 28.3948 57.2719 26.8593C57.2719 25.3076 58.3989 24.2465 59.7043 24.2465C61.0108 24.2465 62.1368 25.3076 62.1368 26.8593C62.1378 28.3938 61.0108 29.4722 59.7043 29.4722ZM48.4766 23.8715V25.6999H52.853C52.7223 26.7286 52.3797 27.4796 51.8567 28.0016C51.2202 28.638 50.2239 29.3404 48.4766 29.3404C45.7827 29.3404 43.6766 27.1684 43.6766 24.4745C43.6766 21.7806 45.7827 19.6087 48.4766 19.6087C49.93 19.6087 50.9912 20.1803 51.7746 20.9151L53.0648 19.6249C51.9702 18.5799 50.5179 17.7803 48.4766 17.7803C44.7864 17.7803 41.6841 20.7843 41.6841 24.4745C41.6841 28.1647 44.7864 31.1688 48.4766 31.1688C50.4682 31.1688 51.9712 30.5151 53.1459 29.2907C54.354 28.0826 54.73 26.384 54.73 25.0127C54.73 24.5891 54.6976 24.1968 54.6317 23.8705H48.4766V23.8715ZM94.3969 25.2914C94.0381 24.3286 92.9435 22.5478 90.7067 22.5478C88.4861 22.5478 86.6405 24.2951 86.6405 26.8583C86.6405 29.2745 88.4699 31.1688 90.9185 31.1688C92.8939 31.1688 94.0371 29.9607 94.5114 29.2583L93.0418 28.2782C92.5523 28.9968 91.8824 29.4701 90.9185 29.4701C89.9557 29.4701 89.2696 29.0293 88.8287 28.1637L94.5925 25.7799L94.3969 25.2914ZM88.5185 26.7286C88.4699 25.0624 89.8087 24.2141 90.7726 24.2141C91.5236 24.2141 92.1601 24.5901 92.3729 25.1282L88.5185 26.7286ZM83.8331 30.9083H85.7263V18.2384H83.8331V30.9083ZM80.7297 23.5117H80.6648C80.2402 23.0049 79.4233 22.5478 78.3956 22.5478C76.2398 22.5478 74.2645 24.4421 74.2645 26.8755C74.2645 29.2918 76.2398 31.1698 78.3956 31.1698C79.4243 31.1698 80.2402 30.7127 80.6648 30.1907H80.7297V30.811C80.7297 32.46 79.8479 33.3418 78.428 33.3418C77.2685 33.3418 76.55 32.5097 76.256 31.8073L74.6071 32.4934C75.0804 33.6357 76.3371 35.0404 78.428 35.0404C80.6486 35.0404 82.5266 33.734 82.5266 30.5495V22.8103H80.7307V23.5117H80.7297ZM78.5587 29.4722C77.2523 29.4722 76.1587 28.3776 76.1587 26.8755C76.1587 25.3563 77.2523 24.2465 78.5587 24.2465C79.8479 24.2465 80.8604 25.3563 80.8604 26.8755C80.8604 28.3776 79.8479 29.4722 78.5587 29.4722ZM103.269 18.2384H98.7378V30.9083H100.628V26.1083H103.268C105.364 26.1083 107.426 24.5911 107.426 22.1739C107.426 19.7566 105.365 18.2384 103.269 18.2384ZM103.318 24.3448H100.628V20.0019H103.318C104.732 20.0019 105.534 21.1725 105.534 22.1739C105.534 23.1549 104.732 24.3448 103.318 24.3448ZM115.006 22.5255C113.636 22.5255 112.219 23.1286 111.632 24.4654L113.31 25.1657C113.669 24.4654 114.338 24.2364 115.038 24.2364C116.016 24.2364 117.01 24.8232 117.027 25.8661V25.9968C116.684 25.8012 115.95 25.5083 115.054 25.5083C113.245 25.5083 111.403 26.5026 111.403 28.3603C111.403 30.0559 112.886 31.1475 114.549 31.1475C115.82 31.1475 116.521 30.5769 116.961 29.908H117.026V30.886H118.852V26.0282C118.853 23.7803 117.173 22.5255 115.006 22.5255ZM114.777 29.4691C114.158 29.4691 113.294 29.159 113.294 28.3928C113.294 27.4147 114.37 27.0397 115.3 27.0397C116.13 27.0397 116.522 27.2191 117.027 27.4634C116.88 28.638 115.869 29.4691 114.777 29.4691ZM125.503 22.8022L123.335 28.2955H123.27L121.02 22.8022H118.983L122.357 30.4796L120.433 34.7505H122.405L127.606 22.8022H125.503ZM108.47 30.9083H110.36V18.2384H108.47V30.9083Z" fill="white"/>
<path d="M48.146 10.8845C48.146 11.7339 47.8947 12.4099 47.391 12.9146C46.8193 13.5146 46.0734 13.8146 45.1572 13.8146C44.2795 13.8146 43.5325 13.5106 42.9193 12.9024C42.3051 12.2933 41.998 11.5393 41.998 10.6393C41.998 9.73825 42.3051 8.9842 42.9193 8.37609C43.5325 7.76697 44.2795 7.46292 45.1572 7.46292C45.593 7.46292 46.0095 7.54805 46.4048 7.71731C46.8011 7.88758 47.1183 8.11359 47.3555 8.39636L46.8214 8.9315C46.419 8.45008 45.8646 8.20988 45.1562 8.20988C44.5156 8.20988 43.9622 8.43488 43.495 8.88488C43.0278 9.33488 42.7947 9.91967 42.7947 10.6383C42.7947 11.3568 43.0278 11.9416 43.495 12.3916C43.9622 12.8416 44.5156 13.0666 45.1562 13.0666C45.8352 13.0666 46.4018 12.8406 46.8548 12.3876C47.1487 12.0926 47.319 11.6822 47.3646 11.1562H45.1562V10.4254H48.1024C48.1328 10.5845 48.146 10.7376 48.146 10.8845Z" fill="white"/>
<path d="M52.8184 8.34473H50.0495V10.2724H52.5468V11.0032H50.0495V12.9309H52.8184V13.6789H49.2681V7.59777H52.8184V8.34473Z" fill="white"/>
<path d="M56.1132 13.6789H55.3318V8.34473H53.6332V7.59777H57.8119V8.34473H56.1132V13.6789Z" fill="white"/>
<path d="M60.8351 13.6789V7.59777H61.6166V13.6789H60.8351Z" fill="white"/>
<path d="M65.0819 13.6789H64.3005V8.34473H62.6019V7.59777H66.7806V8.34473H65.0819V13.6789Z" fill="white"/>
<path d="M74.6908 12.8934C74.0929 13.5076 73.3499 13.8147 72.4611 13.8147C71.5722 13.8147 70.8293 13.5076 70.2324 12.8934C69.6344 12.2792 69.3364 11.5272 69.3364 10.6383C69.3364 9.74945 69.6344 8.99742 70.2324 8.38323C70.8293 7.76905 71.5722 7.46094 72.4611 7.46094C73.3449 7.46094 74.0868 7.77006 74.6868 8.38729C75.2868 9.00452 75.5868 9.75452 75.5868 10.6383C75.5868 11.5272 75.2878 12.2792 74.6908 12.8934ZM70.8091 12.3836C71.2591 12.8397 71.8094 13.0667 72.4611 13.0667C73.1128 13.0667 73.6641 12.8386 74.1131 12.3836C74.5631 11.9275 74.7891 11.3457 74.7891 10.6383C74.7891 9.93087 74.5631 9.34911 74.1131 8.89303C73.6641 8.43695 73.1128 8.20992 72.4611 8.20992C71.8094 8.20992 71.2591 8.43796 70.8091 8.89303C70.3601 9.34911 70.1341 9.93087 70.1341 10.6383C70.1341 11.3457 70.3601 11.9275 70.8091 12.3836Z" fill="white"/>
<path d="M76.6834 13.6789V7.59777H77.6341L80.5895 12.3278H80.6229L80.5895 11.1562V7.59777H81.3709V13.6789H80.555L77.4628 8.71872H77.4294L77.4628 9.89034V13.6789H76.6834Z" fill="white"/>
<path d="M48.146 10.8845C48.146 11.7339 47.8947 12.4099 47.391 12.9146C46.8193 13.5146 46.0734 13.8146 45.1572 13.8146C44.2795 13.8146 43.5325 13.5106 42.9193 12.9024C42.3051 12.2933 41.998 11.5393 41.998 10.6393C41.998 9.73825 42.3051 8.9842 42.9193 8.37609C43.5325 7.76697 44.2795 7.46292 45.1572 7.46292C45.593 7.46292 46.0095 7.54805 46.4048 7.71731C46.8011 7.88758 47.1183 8.11359 47.3555 8.39636L46.8214 8.9315C46.419 8.45008 45.8646 8.20988 45.1562 8.20988C44.5156 8.20988 43.9622 8.43488 43.495 8.88488C43.0278 9.33488 42.7947 9.91967 42.7947 10.6383C42.7947 11.3568 43.0278 11.9416 43.495 12.3916C43.9622 12.8416 44.5156 13.0666 45.1562 13.0666C45.8352 13.0666 46.4018 12.8406 46.8548 12.3876C47.1487 12.0926 47.319 11.6822 47.3646 11.1562H45.1562V10.4254H48.1024C48.1328 10.5845 48.146 10.7376 48.146 10.8845Z" stroke="white" stroke-width="0.202703" stroke-miterlimit="10"/>
<path d="M52.8184 8.34473H50.0495V10.2724H52.5468V11.0032H50.0495V12.9309H52.8184V13.6789H49.2681V7.59777H52.8184V8.34473Z" stroke="white" stroke-width="0.202703" stroke-miterlimit="10"/>
<path d="M56.1132 13.6789H55.3318V8.34473H53.6332V7.59777H57.8119V8.34473H56.1132V13.6789Z" stroke="white" stroke-width="0.202703" stroke-miterlimit="10"/>
<path d="M60.8351 13.6789V7.59777H61.6166V13.6789H60.8351Z" stroke="white" stroke-width="0.202703" stroke-miterlimit="10"/>
<path d="M65.0819 13.6789H64.3005V8.34473H62.6019V7.59777H66.7806V8.34473H65.0819V13.6789Z" stroke="white" stroke-width="0.202703" stroke-miterlimit="10"/>
<path d="M74.6908 12.8934C74.0929 13.5076 73.3499 13.8147 72.4611 13.8147C71.5722 13.8147 70.8293 13.5076 70.2324 12.8934C69.6344 12.2792 69.3364 11.5272 69.3364 10.6383C69.3364 9.74945 69.6344 8.99742 70.2324 8.38323C70.8293 7.76905 71.5722 7.46094 72.4611 7.46094C73.3449 7.46094 74.0868 7.77006 74.6868 8.38729C75.2868 9.00452 75.5868 9.75452 75.5868 10.6383C75.5868 11.5272 75.2878 12.2792 74.6908 12.8934ZM70.8091 12.3836C71.2591 12.8397 71.8094 13.0667 72.4611 13.0667C73.1128 13.0667 73.6641 12.8386 74.1131 12.3836C74.5631 11.9275 74.7891 11.3457 74.7891 10.6383C74.7891 9.93087 74.5631 9.34911 74.1131 8.89303C73.6641 8.43695 73.1128 8.20992 72.4611 8.20992C71.8094 8.20992 71.2591 8.43796 70.8091 8.89303C70.3601 9.34911 70.1341 9.93087 70.1341 10.6383C70.1341 11.3457 70.3601 11.9275 70.8091 12.3836Z" stroke="white" stroke-width="0.202703" stroke-miterlimit="10"/>
<path d="M76.6834 13.6789V7.59777H77.6341L80.5895 12.3278H80.6229L80.5895 11.1562V7.59777H81.3709V13.6789H80.555L77.4628 8.71872H77.4294L77.4628 9.89034V13.6789H76.6834Z" stroke="white" stroke-width="0.202703" stroke-miterlimit="10"/>
<g filter="url(#filter0_ii_292_4932)">
<path d="M10.6646 8.14235C10.3696 8.45451 10.1953 8.93897 10.1953 9.56633V31.9812C10.1953 32.6096 10.3696 33.093 10.6646 33.4052L10.7396 33.4782L23.296 20.9217V20.7738V20.6258L10.7396 8.06836L10.6646 8.14235Z" fill="url(#paint0_linear_292_4932)"/>
<path d="M27.4807 25.109L23.2959 20.9222V20.7742V20.6262L27.4817 16.4404L27.576 16.4941L32.5351 19.3117C33.951 20.1164 33.951 21.433 32.5351 22.2387L27.576 25.0563L27.4807 25.109Z" fill="url(#paint1_linear_292_4932)"/>
<g filter="url(#filter1_i_292_4932)">
<path d="M27.576 25.0555L23.295 20.7744L10.6646 33.4058C11.1308 33.9004 11.9021 33.9612 12.7706 33.4687L27.576 25.0555Z" fill="url(#paint2_linear_292_4932)"/>
</g>
<path d="M27.576 16.493L12.7706 8.08085C11.9021 7.58727 11.1308 7.64909 10.6646 8.14369L23.296 20.7751L27.576 16.493Z" fill="url(#paint3_linear_292_4932)"/>
</g>
<defs>
<filter id="filter0_ii_292_4932" x="10.1953" y="7.74023" width="23.4019" height="26.0684" filterUnits="userSpaceOnUse" color-interpolation-filters="sRGB">
<feFlood flood-opacity="0" result="BackgroundImageFix"/>
<feBlend mode="normal" in="SourceGraphic" in2="BackgroundImageFix" result="shape"/>
<feColorMatrix in="SourceAlpha" type="matrix" values="0 0 0 0 0 0 0 0 0 0 0 0 0 0 0 0 0 0 127 0" result="hardAlpha"/>
<feOffset dy="-0.152027"/>
<feComposite in2="hardAlpha" operator="arithmetic" k2="-1" k3="1"/>
<feColorMatrix type="matrix" values="0 0 0 0 0 0 0 0 0 0 0 0 0 0 0 0 0 0 0.12 0"/>
<feBlend mode="normal" in2="shape" result="effect1_innerShadow_292_4932"/>
<feColorMatrix in="SourceAlpha" type="matrix" values="0 0 0 0 0 0 0 0 0 0 0 0 0 0 0 0 0 0 127 0" result="hardAlpha"/>
<feOffset dy="0.152027"/>
<feComposite in2="hardAlpha" operator="arithmetic" k2="-1" k3="1"/>
<feColorMatrix type="matrix" values="0 0 0 0 1 0 0 0 0 1 0 0 0 0 1 0 0 0 0.25 0"/>
<feBlend mode="normal" in2="effect1_innerShadow_292_4932" result="effect2_innerShadow_292_4932"/>
</filter>
<filter id="filter1_i_292_4932" x="10.6646" y="20.7744" width="16.9116" height="13.0342" filterUnits="userSpaceOnUse" color-interpolation-filters="sRGB">
<feFlood flood-opacity="0" result="BackgroundImageFix"/>
<feBlend mode="normal" in="SourceGraphic" in2="BackgroundImageFix" result="shape"/>
<feColorMatrix in="SourceAlpha" type="matrix" values="0 0 0 0 0 0 0 0 0 0 0 0 0 0 0 0 0 0 127 0" result="hardAlpha"/>
<feOffset dy="-0.152027"/>
<feComposite in2="hardAlpha" operator="arithmetic" k2="-1" k3="1"/>
<feColorMatrix type="matrix" values="0 0 0 0 0 0 0 0 0 0 0 0 0 0 0 0 0 0 0.08 0"/>
<feBlend mode="normal" in2="shape" result="effect1_innerShadow_292_4932"/>
</filter>
<linearGradient id="paint0_linear_292_4932" x1="22.1829" y1="9.32917" x2="5.17417" y2="26.338" gradientUnits="userSpaceOnUse">
<stop stop-color="#00A0FF"/>
<stop offset="0.0066" stop-color="#00A1FF"/>
<stop offset="0.2601" stop-color="#00BEFF"/>
<stop offset="0.5122" stop-color="#00D2FF"/>
<stop offset="0.7604" stop-color="#00DFFF"/>
<stop offset="1" stop-color="#00E3FF"/>
</linearGradient>
<linearGradient id="paint1_linear_292_4932" x1="34.3782" y1="20.7742" x2="9.85529" y2="20.7742" gradientUnits="userSpaceOnUse">
<stop stop-color="#FFE000"/>
<stop offset="0.4087" stop-color="#FFBD00"/>
<stop offset="0.7754" stop-color="#FFA500"/>
<stop offset="1" stop-color="#FF9C00"/>
</linearGradient>
<linearGradient id="paint2_linear_292_4932" x1="25.2511" y1="23.0993" x2="2.18509" y2="46.1654" gradientUnits="userSpaceOnUse">
<stop stop-color="#FF3A44"/>
<stop offset="1" stop-color="#C31162"/>
</linearGradient>
<linearGradient id="paint3_linear_292_4932" x1="7.48354" y1="0.682001" x2="17.7832" y2="10.9816" gradientUnits="userSpaceOnUse">
<stop stop-color="#32A071"/>
<stop offset="0.0685" stop-color="#2DA771"/>
<stop offset="0.4762" stop-color="#15CF74"/>
<stop offset="0.8009" stop-color="#06E775"/>
<stop offset="1" stop-color="#00F076"/>
</linearGradient>
</defs>
</svg>
